<svg width="28" height="28" viewBox="0 0 28 28" fill="none" xmlns="http://www.w3.org/2000/svg">
<path d="M10.4862 11.4367H1.7473C1.19206 11.4367 0.75 10.9922 0.75 10.4461V1.74061C0.75 1.19753 1.1951 0.75 1.7473 0.75H10.4862C11.0384 0.75 11.4835 1.19753 11.4835 1.74061V10.4461C11.4835 10.9891 11.0384 11.4367 10.4862 11.4367Z" stroke="#BFBFBF" stroke-width="1.5"/>
<path d="M24.4167 11.4367H15.6777C15.1247 11.4367 14.6804 10.9913 14.6804 10.4461V1.74061C14.6804 1.19753 15.1255 0.75 15.6777 0.75H24.4167C24.9689 0.75 25.414 1.19753 25.414 1.74061V10.4461C25.414 10.9891 24.9689 11.4367 24.4167 11.4367Z" stroke="#BFBFBF" stroke-width="1.5"/>
<path d="M1.7473 25.3209C1.1951 25.3209 0.75 24.8734 0.75 24.3303V15.6243C0.75 15.0812 1.1951 14.6337 1.7473 14.6337H10.4862C11.0384 14.6337 11.4835 15.0812 11.4835 15.6243V24.3303C11.4835 24.8734 11.0384 25.3209 10.4862 25.3209H1.7473Z" stroke="#BFBFBF" stroke-width="1.5"/>
<path d="M15.6777 25.3209C15.1255 25.3209 14.6804 24.8734 14.6804 24.3303V15.6243C14.6804 15.0812 15.1255 14.6337 15.6777 14.6337H24.4167C24.9689 14.6337 25.414 15.0812 25.414 15.6243V24.3303C25.414 24.8734 24.9689 25.3209 24.4167 25.3209H15.6777Z" stroke="#BFBFBF" stroke-width="1.5"/>
</svg>
