<svg width="172" height="37" viewBox="0 0 172 37" fill="none" xmlns="http://www.w3.org/2000/svg">
<path fill-rule="evenodd" clip-rule="evenodd" d="M35.5194 36.9999L28.4155 24.6709H42.6233L35.5194 36.9999Z" fill="#0E3480"/>
<path fill-rule="evenodd" clip-rule="evenodd" d="M7.1039 12.329L0 0H14.2078L21.3117 12.329H7.1039Z" fill="#4570ba"/>
<path fill-rule="evenodd" clip-rule="evenodd" d="M14.2078 24.671L21.3117 12.329L28.4156 0H42.6234L21.3117 37L14.2078 24.671Z" fill="#2FB4A3"/>
<path fill-rule="evenodd" clip-rule="evenodd" d="M35.5195 37L42.6234 24.671L56.8312 0L63.9351 12.329L49.7273 37H35.5195Z" fill="#2B54A4"/>
<path d="M90.1558 1.73169L86.935 14.1388H83.2857L81.3116 5.97588L79.2727 14.1388H75.6233L72.4805 1.73169H75.7012L77.4805 10.7539L79.6883 1.73169H82.9999L85.1168 10.7539L86.909 1.73169H90.1558Z" fill="white"/>
<path d="M93.974 13.4357C93 12.8889 92.2338 12.1338 91.6623 11.1704C91.0909 10.1939 90.8052 9.10034 90.8052 7.88957C90.8052 6.6788 91.0909 5.58521 91.6623 4.6218C92.2338 3.65839 93 2.90329 93.974 2.35649C94.948 1.8097 96.013 1.54932 97.1688 1.54932C98.3247 1.54932 99.4026 1.82272 100.364 2.35649C101.338 2.90329 102.091 3.65839 102.649 4.6218C103.208 5.58521 103.481 6.6788 103.481 7.88957C103.481 9.10034 103.195 10.1939 102.636 11.1704C102.078 12.1468 101.312 12.9019 100.351 13.4357C99.3896 13.9694 98.3247 14.2428 97.1558 14.2428C95.987 14.2428 94.9221 13.9694 93.961 13.4357H93.974ZM99.5454 10.5064C100.143 9.84242 100.442 8.97015 100.442 7.88957C100.442 6.80899 100.143 5.9237 99.5454 5.25973C98.948 4.60878 98.1558 4.28331 97.1688 4.28331C96.1818 4.28331 95.3766 4.60878 94.7792 5.25973C94.1818 5.91068 93.8831 6.78295 93.8831 7.88957C93.8831 8.99618 94.1818 9.85544 94.7792 10.5194C95.3766 11.1704 96.1688 11.4958 97.1688 11.4958C98.1688 11.4958 98.948 11.1704 99.5454 10.5064Z" fill="white"/>
<path d="M111.831 14.1258L109.26 9.43894H108.533V14.1258H105.52V1.73169H110.571C111.546 1.73169 112.377 1.90094 113.065 2.23943C113.753 2.57792 114.26 3.04661 114.61 3.64548C114.948 4.24436 115.117 4.90833 115.117 5.63739C115.117 6.45759 114.883 7.19967 114.416 7.85062C113.948 8.50157 113.26 8.95723 112.364 9.23063L115.221 14.1388H111.818L111.831 14.1258ZM108.533 7.30382H110.403C110.948 7.30382 111.364 7.17363 111.649 6.90023C111.922 6.62683 112.065 6.24928 112.065 5.75456C112.065 5.25984 111.922 4.90833 111.649 4.64795C111.377 4.37455 110.961 4.24436 110.403 4.24436H108.533V7.31684V7.30382Z" fill="white"/>
<path d="M120.39 11.7954H124.338V14.1258H117.377V1.73169H120.39V11.8084V11.7954Z" fill="white"/>
<path d="M134.182 2.51283C135.156 3.03359 135.909 3.76265 136.442 4.70002C136.974 5.63739 137.247 6.71797 137.247 7.94175C137.247 9.16554 136.974 10.2331 136.442 11.1705C135.909 12.1078 135.143 12.8369 134.169 13.3577C133.182 13.8784 132.052 14.1388 130.753 14.1388H126.117V1.73169H130.753C132.052 1.73169 133.195 1.99207 134.169 2.51283H134.182ZM133.234 10.5846C133.87 9.9597 134.182 9.07441 134.182 7.92873C134.182 6.78306 133.87 5.89777 133.234 5.25984C132.597 4.62191 131.714 4.30945 130.571 4.30945H129.143V11.522H130.571C131.714 11.522 132.597 11.2095 133.234 10.5846Z" fill="white"/>
<path d="M80.8442 33.1335H76.2208L75.4806 35.3207H72.3247L76.8052 22.9136H80.2987L84.7793 35.3207H81.5844L80.8442 33.1335ZM80.065 30.8031L78.5325 26.2595L77.013 30.8031H80.065Z" fill="white"/>
<path d="M92.7922 35.3336L90.2207 30.6468H89.4935V35.3336H86.4805V22.9265H91.5324C92.5065 22.9265 93.3376 23.0958 94.0259 23.4343C94.7142 23.7727 95.2207 24.2414 95.5714 24.8403C95.909 25.4392 96.0779 26.1032 96.0779 26.8322C96.0779 27.6524 95.8441 28.3945 95.3766 29.0454C94.909 29.6964 94.2207 30.1521 93.3246 30.4255L96.1818 35.3336H92.7792H92.7922ZM89.4935 28.5117H91.3636C91.909 28.5117 92.3246 28.3815 92.6103 28.1081C92.8831 27.8347 93.0259 27.4571 93.0259 26.9624C93.0259 26.4677 92.8831 26.1162 92.6103 25.8558C92.3376 25.5824 91.922 25.4522 91.3636 25.4522H89.4935V28.5247V28.5117Z" fill="white"/>
<path d="M107.221 22.9265V25.348H103.948V35.3336H100.935V25.348H97.6624V22.9265H107.234H107.221Z" fill="white"/>
<path d="M120.52 23.7077C121.494 24.2284 122.247 24.9575 122.779 25.8948C123.312 26.8322 123.584 27.9128 123.584 29.1366C123.584 30.3604 123.312 31.4279 122.779 32.3653C122.247 33.3027 121.481 34.0317 120.507 34.5525C119.52 35.0732 118.39 35.3336 117.091 35.3336H112.455V22.9265H117.091C118.39 22.9265 119.533 23.1869 120.507 23.7077H120.52ZM119.571 31.7794C120.208 31.1545 120.52 30.2692 120.52 29.1236C120.52 27.9779 120.208 27.0926 119.571 26.4547C118.935 25.8167 118.052 25.5043 116.909 25.5043H115.481V32.7168H116.909C118.052 32.7168 118.935 32.4043 119.571 31.7794Z" fill="white"/>
<path d="M128.649 25.348V27.8607H132.688V30.1911H128.649V32.9121H133.208V35.3336H125.636V22.9265H133.208V25.348H128.649Z" fill="white"/>
<path d="M143.104 35.3335L140.584 31.532L138.364 35.3335H134.948L138.909 29.0323L134.857 22.9395H138.364L140.844 26.6889L143.026 22.9395H146.442L142.507 29.1886L146.597 35.3335H143.091H143.104Z" fill="white"/>
<path d="M157.403 28.8892C157.078 29.4881 156.571 29.9698 155.883 30.3343C155.195 30.6989 154.351 30.8811 153.351 30.8811H151.481V35.3336H148.468V22.9265H153.351C154.338 22.9265 155.169 23.0958 155.857 23.4343C156.532 23.7727 157.052 24.2414 157.39 24.8533C157.727 25.4522 157.896 26.1422 157.896 26.9233C157.896 27.6394 157.727 28.3034 157.403 28.8892ZM154.403 28.069C154.688 27.7956 154.831 27.4181 154.831 26.9233C154.831 26.4286 154.688 26.0511 154.403 25.7777C154.117 25.5043 153.688 25.3741 153.117 25.3741H151.481V28.4856H153.117C153.688 28.4856 154.117 28.3554 154.403 28.082V28.069Z" fill="white"/>
<path d="M162.481 34.6437C161.507 34.0969 160.74 33.3418 160.169 32.3784C159.597 31.4019 159.312 30.3083 159.312 29.0976C159.312 27.8868 159.597 26.7932 160.169 25.8298C160.74 24.8664 161.507 24.1113 162.481 23.5645C163.455 23.0177 164.52 22.7573 165.675 22.7573C166.831 22.7573 167.909 23.0307 168.87 23.5645C169.844 24.1113 170.597 24.8664 171.156 25.8298C171.714 26.7932 171.987 27.8868 171.987 29.0976C171.987 30.3083 171.701 31.4019 171.143 32.3784C170.584 33.3548 169.818 34.1099 168.857 34.6437C167.896 35.1775 166.831 35.4508 165.662 35.4508C164.494 35.4508 163.429 35.1775 162.468 34.6437H162.481ZM168.052 31.7144C168.649 31.0504 168.948 30.1782 168.948 29.0976C168.948 28.017 168.649 27.1317 168.052 26.4677C167.455 25.8168 166.662 25.4913 165.675 25.4913C164.688 25.4913 163.883 25.8168 163.286 26.4677C162.688 27.1187 162.39 27.991 162.39 29.0976C162.39 30.2042 162.688 31.0634 163.286 31.7274C163.883 32.3784 164.675 32.7038 165.675 32.7038C166.675 32.7038 167.455 32.3784 168.052 31.7144Z" fill="white"/>
</svg>
