<svg width="42" height="31" viewBox="0 0 42 31" fill="none" xmlns="http://www.w3.org/2000/svg">
<path d="M39.1282 0H2.87183C1.28845 0 0 1.29567 0 2.88685V27.8207C0 29.4129 1.28845 30.7086 2.87183 30.7086H39.1282C40.7116 30.7086 42 29.4129 42 27.8207V2.88685C42 1.29459 40.7116 0 39.1282 0ZM2.87183 1.8174H39.1282C39.7148 1.8174 40.1927 2.29692 40.1927 2.88793V17.9565L31.9626 9.77544C31.5869 9.402 30.9831 9.402 30.6074 9.77544L19.9984 20.3216L13.9986 14.3563C13.6229 13.9829 13.019 13.9829 12.6434 14.3563L1.80727 25.1276V2.88685C1.80727 2.29692 2.28519 1.81632 2.87183 1.81632V1.8174Z" fill="#D9D9D9"/>
</svg>
