<svg width="27" height="32" viewBox="0 0 27 32" fill="none" xmlns="http://www.w3.org/2000/svg">
<g clip-path="url(#clip0_177_1843)">
<path d="M14.6185 14.9532L15.8338 15.8804C16.0322 16.0317 16.0931 16.2883 15.9693 16.4506C15.8455 16.6129 15.5819 16.6219 15.3835 16.4706L14.1682 15.5434C13.9699 15.392 13.9089 15.1354 14.0327 14.9731C14.1566 14.8108 14.4202 14.8018 14.6185 14.9532Z" fill="#BFBFBF" stroke="#BFBFBF" stroke-width="0.75" stroke-miterlimit="10"/>
<path d="M17.5004 9.7101L18.9176 10.7914C19.1051 10.9345 19.1701 11.1708 19.0734 11.3351L15.9471 16.4946C15.7877 16.7558 15.6675 16.9582 15.5707 17.1225C15.1691 17.8059 15.1187 17.8794 14.3166 18.8035L4.92186 29.6664C4.57465 30.0691 3.89921 30.072 3.38712 29.6813C2.87504 29.2906 2.70167 28.6355 2.99614 28.1972L10.9917 16.2667C11.6711 15.2491 11.7324 15.1838 12.2818 14.6132C12.4147 14.4765 12.5781 14.307 12.788 14.0843L16.9385 9.70626C17.0736 9.56656 17.3165 9.56978 17.504 9.71285L17.5004 9.7101ZM18.1355 11.1285L17.3782 10.5507L13.4615 14.6822C13.2494 14.9079 13.0859 15.0773 12.9508 15.217C12.4261 15.7551 12.3955 15.7878 11.7319 16.7848L3.73268 28.7124C3.65884 28.8242 3.70399 28.9893 3.83381 29.0884C3.96364 29.1874 4.13486 29.1874 4.22313 29.0866L13.6179 18.2237C14.4006 17.3175 14.4262 17.2764 14.808 16.634C14.9048 16.4697 15.0273 16.2643 15.1889 16.0001L18.1392 11.1312L18.1355 11.1285Z" fill="#BFBFBF" stroke="#BFBFBF" stroke-width="0.5" stroke-miterlimit="10"/>
<path d="M13.4032 14.026L14.6185 14.9532C14.8168 15.1045 14.8778 15.3611 14.754 15.5234C14.6301 15.6857 14.3665 15.6947 14.1682 15.5434L12.9529 14.6162C12.7545 14.4649 12.6936 14.2083 12.8174 14.0459C12.9412 13.8836 13.2048 13.8747 13.4032 14.026Z" fill="#BFBFBF" stroke="#BFBFBF" stroke-width="0.5" stroke-miterlimit="10"/>
<path d="M24.9333 3.30305C25.0632 3.4021 25.1466 3.55447 25.135 3.70433C25.1184 3.92046 24.9148 4.04525 24.6832 3.9899C24.6548 3.98225 23.8657 3.80506 23.2932 4.2787C22.7424 4.73148 22.5518 5.63187 22.7358 6.95351C23.3316 11.3251 18.8356 11.4898 18.7909 11.4884C18.5625 11.4962 18.3339 11.3172 18.2847 11.0975C18.2319 10.8751 18.3796 10.689 18.6058 10.6842C18.7639 10.6788 22.3867 10.5295 21.8946 6.90456C21.701 5.46828 21.8987 4.42394 22.4909 3.79729C21.5199 3.83612 20.3917 4.05851 19.4773 4.7335C18.1197 5.74263 17.5236 7.53349 17.7038 10.0567C17.7179 10.2775 17.5422 10.433 17.3057 10.4066C17.0713 10.3772 16.8703 10.1771 16.8526 9.95349C16.6551 7.18368 17.3354 5.20025 18.8799 4.05828C21.2023 2.33795 24.5985 3.17362 24.7404 3.2119C24.8125 3.22956 24.877 3.26473 24.9311 3.306L24.9333 3.30305Z" fill="#BFBFBF" stroke="#BFBFBF" stroke-width="0.5" stroke-miterlimit="10"/>
</g>
<defs>
<clipPath id="clip0_177_1843">
<rect width="6.64065" height="34.3192" fill="white" transform="translate(5.73584 31.6506) rotate(-142.658)"/>
</clipPath>
</defs>
</svg>
