<svg width="245" height="165" viewBox="0 0 245 165" fill="none" xmlns="http://www.w3.org/2000/svg">
<path fill-rule="evenodd" clip-rule="evenodd" d="M130 71L114 48H146L130 71Z" fill="#0E3480"/>
<path fill-rule="evenodd" clip-rule="evenodd" d="M67 24L51 0H83L99 24H67Z" fill="#4570ba"/>
<path fill-rule="evenodd" clip-rule="evenodd" d="M83 47.3417L98.75 23.6583L114.5 0H146L98.75 71L83 47.3417Z" fill="#2FB4A3"/>
<path fill-rule="evenodd" clip-rule="evenodd" d="M130 71L145.75 47.3417L177.25 0L193 23.6583L161.5 71H130Z" fill="#2B54A4"/>
<path d="M89.5054 99.4111L81.5878 125.974H72.6166L67.7639 108.498L62.7515 125.974H53.7803L46.0542 99.4111H53.9718L58.3457 118.727L63.7731 99.4111H71.9142L77.1182 118.727L81.524 99.4111H89.5054Z" fill="white"/>
<path d="M98.8918 124.469C96.4973 123.298 94.6137 121.681 93.2089 119.619C91.8042 117.528 91.1018 115.187 91.1018 112.595C91.1018 110.003 91.8042 107.662 93.2089 105.599C94.6137 103.536 96.4973 101.92 98.8918 100.749C101.286 99.5784 103.904 99.021 106.746 99.021C109.587 99.021 112.237 99.6063 114.599 100.749C116.994 101.92 118.845 103.536 120.218 105.599C121.591 107.662 122.262 110.003 122.262 112.595C122.262 115.187 121.559 117.528 120.186 119.619C118.814 121.709 116.93 123.326 114.567 124.469C112.205 125.612 109.587 126.197 106.714 126.197C103.84 126.197 101.222 125.612 98.8598 124.469H98.8918ZM112.588 118.197C114.057 116.776 114.791 114.908 114.791 112.595C114.791 110.282 114.057 108.386 112.588 106.965C111.119 105.571 109.172 104.874 106.746 104.874C104.319 104.874 102.34 105.571 100.871 106.965C99.4026 108.358 98.6683 110.226 98.6683 112.595C98.6683 114.964 99.4026 116.804 100.871 118.225C102.34 119.619 104.287 120.316 106.746 120.316C109.204 120.316 111.119 119.619 112.588 118.197Z" fill="white"/>
<path d="M142.79 125.946L136.469 115.912H134.681V125.946H127.274V99.4111H139.693C142.088 99.4111 144.131 99.7735 145.823 100.498C147.515 101.223 148.76 102.226 149.622 103.508C150.452 104.791 150.867 106.212 150.867 107.773C150.867 109.529 150.293 111.118 149.143 112.511C147.994 113.905 146.302 114.88 144.099 115.466L151.123 125.974H142.758L142.79 125.946ZM134.681 111.341H139.278C140.619 111.341 141.641 111.062 142.343 110.477C143.013 109.891 143.365 109.083 143.365 108.024C143.365 106.965 143.013 106.212 142.343 105.655C141.673 105.069 140.651 104.791 139.278 104.791H134.681V111.369V111.341Z" fill="white"/>
<path d="M163.829 120.957H173.535V125.946H156.422V99.4111H163.829V120.985V120.957Z" fill="white"/>
<path d="M197.734 101.083C200.129 102.198 201.981 103.759 203.29 105.766C204.599 107.773 205.269 110.086 205.269 112.706C205.269 115.326 204.599 117.612 203.29 119.619C201.981 121.626 200.097 123.187 197.703 124.301C195.276 125.416 192.499 125.974 189.306 125.974H177.908V99.4111H189.306C192.499 99.4111 195.308 99.9686 197.703 101.083H197.734ZM195.404 118.365C196.968 117.027 197.734 115.131 197.734 112.679C197.734 110.226 196.968 108.33 195.404 106.965C193.839 105.599 191.669 104.93 188.859 104.93H185.347V120.371H188.859C191.669 120.371 193.839 119.702 195.404 118.365Z" fill="white"/>
<path d="M20.9434 160.039H9.5778L7.75802 164.721H0L11.0145 138.159H19.6026L30.617 164.721H22.7632L20.9434 160.039ZM19.0279 155.05L15.2606 145.322L11.5253 155.05H19.0279Z" fill="white"/>
<path d="M50.3153 164.749L43.994 154.715H42.2062V164.749H34.7993V138.187H47.2185C49.613 138.187 51.6562 138.549 53.3483 139.274C55.0404 139.998 56.2855 141.002 57.1475 142.284C57.9776 143.566 58.3926 144.987 58.3926 146.548C58.3926 148.304 57.818 149.893 56.6686 151.287C55.5193 152.68 53.8272 153.656 51.6243 154.241L58.648 164.749H50.2834H50.3153ZM42.2062 150.144H46.8035C48.1444 150.144 49.166 149.865 49.8684 149.28C50.5388 148.695 50.89 147.886 50.89 146.827C50.89 145.768 50.5388 145.015 49.8684 144.458C49.1979 143.873 48.1763 143.594 46.8035 143.594H42.2062V150.172V150.144Z" fill="white"/>
<path d="M85.7851 138.187V143.371H77.7398V164.749H70.333V143.371H62.2876V138.187H85.8171H85.7851Z" fill="white"/>
<path d="M118.477 139.859C120.872 140.974 122.724 142.535 124.033 144.541C125.342 146.548 126.012 148.862 126.012 151.482C126.012 154.102 125.342 156.387 124.033 158.394C122.724 160.401 120.84 161.962 118.445 163.077C116.019 164.192 113.242 164.749 110.049 164.749H98.6514V138.187H110.049C113.242 138.187 116.051 138.744 118.445 139.859H118.477ZM116.147 157.14C117.711 155.802 118.477 153.907 118.477 151.454C118.477 149.001 117.711 147.106 116.147 145.74C114.582 144.374 112.411 143.705 109.602 143.705H106.09V159.147H109.602C112.411 159.147 114.582 158.478 116.147 157.14Z" fill="white"/>
<path d="M138.463 143.371V148.75H148.392V153.739H138.463V159.565H149.669V164.749H131.056V138.187H149.669V143.371H138.463Z" fill="white"/>
<path d="M173.997 164.749L167.803 156.61L162.344 164.749H153.947L163.685 151.259L153.724 138.214H162.344L168.442 146.242L173.805 138.214H182.202L172.528 151.593L182.585 164.749H173.965H173.997Z" fill="white"/>
<path d="M209.147 150.952C208.349 152.234 207.104 153.266 205.412 154.046C203.72 154.826 201.645 155.217 199.186 155.217H194.589V164.749H187.182V138.187H199.186C201.613 138.187 203.656 138.549 205.348 139.274C207.008 139.998 208.285 141.002 209.115 142.312C209.945 143.594 210.36 145.071 210.36 146.743C210.36 148.276 209.945 149.698 209.147 150.952ZM201.772 149.196C202.475 148.611 202.826 147.803 202.826 146.743C202.826 145.684 202.475 144.876 201.772 144.291C201.07 143.705 200.016 143.427 198.612 143.427H194.589V150.088H198.612C200.016 150.088 201.07 149.809 201.772 149.224V149.196Z" fill="white"/>
<path d="M221.63 163.272C219.236 162.101 217.352 160.485 215.947 158.422C214.542 156.332 213.84 153.99 213.84 151.398C213.84 148.806 214.542 146.465 215.947 144.402C217.352 142.34 219.236 140.723 221.63 139.552C224.024 138.382 226.642 137.824 229.484 137.824C232.325 137.824 234.975 138.41 237.338 139.552C239.732 140.723 241.584 142.34 242.957 144.402C244.329 146.465 245 148.806 245 151.398C245 153.99 244.297 156.332 242.925 158.422C241.552 160.513 239.668 162.129 237.306 163.272C234.943 164.415 232.325 165 229.452 165C226.579 165 223.961 164.415 221.598 163.272H221.63ZM235.326 157.001C236.795 155.579 237.529 153.712 237.529 151.398C237.529 149.085 236.795 147.189 235.326 145.768C233.858 144.374 231.91 143.677 229.484 143.677C227.057 143.677 225.078 144.374 223.609 145.768C222.141 147.162 221.407 149.029 221.407 151.398C221.407 153.767 222.141 155.607 223.609 157.028C225.078 158.422 227.026 159.119 229.484 159.119C231.942 159.119 233.858 158.422 235.326 157.001Z" fill="white"/>
</svg>
