<svg width="117" height="117" viewBox="0 0 117 117" fill="none" xmlns="http://www.w3.org/2000/svg">
<path d="M58.4992 0C26.1909 0 0 26.1909 0 58.4992C0 90.8276 26.1724 117 58.5008 117C90.8091 117 117 90.8091 117 58.5008C117 26.1724 90.8276 0 58.4992 0ZM53.4517 79.8414L46.1955 86.7943L40.0732 78.7042L22.6008 55.6098C21.0053 53.5022 21.3322 50.5152 23.3437 48.8001C25.5288 46.9385 28.8292 47.299 30.5611 49.5869L47.3327 71.7513L86.8786 33.8683C88.9525 31.882 92.2714 32.0505 94.1331 34.2389L94.1937 34.3114C95.9054 36.323 95.7521 39.3218 93.845 41.1497L53.4534 79.8414H53.4517Z" fill="#424242"/>
</svg>
