<svg width="108" height="116" viewBox="0 0 108 116" fill="none" xmlns="http://www.w3.org/2000/svg">
<g clip-path="url(#clip0_150_978)">
<path d="M6.93876 0.161133H69.6113C71.4579 0.161133 73.1354 0.922918 74.3477 2.13613C75.56 3.34935 76.3212 5.0281 76.3212 6.87613V27.6418H69.4139V7.07363H15.9886L44.703 24.5242C45.8589 25.2295 46.8315 26.4568 47.4518 27.8817C47.9874 29.109 48.3117 30.5479 48.3117 31.9022V84.2115H69.428V63.6292H76.3353V84.3949C76.3353 86.2429 75.5882 87.9217 74.3618 89.1349C73.1495 90.3481 71.472 91.1099 69.6254 91.1099H48.3117V109.421C48.3117 110.775 47.9733 111.988 47.4095 112.905C47.0148 113.54 46.5214 114.062 45.9435 114.443C45.2245 114.909 44.4211 115.163 43.5612 115.163C42.7013 115.163 41.926 114.937 41.1225 114.443L3.83756 91.787C2.68165 91.0817 1.709 89.8543 1.08876 88.4295C0.553099 87.2022 0.228882 85.7633 0.228882 84.409V6.87613C0.228882 5.52185 0.567195 4.30863 1.13105 3.39167C1.42707 2.91203 1.76539 2.50292 2.17418 2.16435L2.20238 2.13613C3.41466 0.922918 5.09213 0.161133 6.93876 0.161133V0.161133ZM54.1616 56.4063H83.9614V67.1701L107.939 45.6426L83.9614 24.1151V34.8788H54.1616V56.4063Z" fill="#424242"/>
</g>
<defs>
<clipPath id="clip0_150_978">
<rect width="107.71" height="115.016" fill="white" transform="translate(0.228882 0.161133)"/>
</clipPath>
</defs>
</svg>
