<svg width="83" height="112" viewBox="0 0 83 112" fill="none" xmlns="http://www.w3.org/2000/svg">
<g clip-path="url(#clip0_103_4382)">
<path fill-rule="evenodd" clip-rule="evenodd" d="M3.55179 27.0095L6.57651 98.1876C6.9044 105.91 13.3035 112 21.0887 112H60.2573C68.0425 112 74.4409 105.91 74.7695 98.1876L77.7942 27.0095C77.8078 26.6922 77.5558 26.4316 77.2362 26.4316H4.10981C3.79019 26.4316 3.53825 26.6922 3.55179 27.0095ZM37.2659 43.6266V94.8047C37.2659 99.2791 44.0801 99.2791 44.0801 94.8047V43.6266C44.0801 39.1522 37.2659 39.1522 37.2659 43.6266ZM54.8487 43.5243L53.0498 94.6711C52.8926 99.1432 59.7023 99.3791 59.8595 94.907L61.6584 43.7603C61.8156 39.2881 55.0058 39.0522 54.8487 43.5243ZM19.6869 43.7603L21.4858 94.907C21.6429 99.3791 28.4527 99.1432 28.2955 94.6711L26.4966 43.5243C26.3394 39.0522 19.5297 39.2881 19.6869 43.7603Z" fill="#424242"/>
<path fill-rule="evenodd" clip-rule="evenodd" d="M4.55587 15.616L20.4887 13.916L20.8594 10.4413C21.0737 8.43372 21.8777 6.48957 23.2599 5.00906C24.5542 3.62262 26.3132 2.65726 28.522 2.42134L50.7358 0.0516222C52.9446 -0.184304 54.8698 0.38834 56.4318 1.47017C58.0998 2.62516 59.3016 4.35504 59.9408 6.27156L61.0463 9.58871L76.9791 7.8887C79.7685 7.59081 82.2961 9.61335 82.5961 12.3825L83.0007 16.1192L0.433924 24.9284L0.029325 21.1917C-0.27074 18.4225 1.76654 15.9132 4.55587 15.6153V15.616ZM26.1658 13.3105L55.3684 10.195L54.6412 8.01413C54.3652 7.1869 53.8824 6.46493 53.2356 6.01697C52.7318 5.66831 52.091 5.48614 51.3315 5.56677L29.1184 7.93648C28.3588 8.01786 27.7714 8.33069 27.3541 8.77791C26.8179 9.35204 26.5005 10.1591 26.408 11.0259L26.1643 13.3105H26.1658Z" fill="#424242"/>
</g>
<defs>
<clipPath id="clip0_103_4382">
<rect width="83" height="112" fill="white"/>
</clipPath>
</defs>
</svg>
