<svg xmlns="http://www.w3.org/2000/svg" width="34" height="34" viewBox="0 0 34 34">
  <defs>
    <style>
      .cls-1 {
        fill: #323a48;
      }

      .cls-2 {
        fill: #fff;
        fill-rule: evenodd;
      }
    </style>
  </defs>
  <circle class="cls-1" cx="17" cy="17" r="17"/>
  <path class="cls-2" d="M1066.52,638.446a3.8,3.8,0,1,1,3.94-3.8A3.881,3.881,0,0,1,1066.52,638.446Zm0-5.757a1.957,1.957,0,1,0,2.03,1.956A2,2,0,0,0,1066.52,632.689Zm5.69,12.458h-11.39a0.941,0.941,0,0,1-.96-0.922c0-2.246,2.53-6.371,6.66-6.371a6.979,6.979,0,0,1,6.65,6.371A0.941,0.941,0,0,1,1072.21,645.147Zm-10.25-1.844h9.12a5.028,5.028,0,0,0-4.56-3.605C1064.12,639.7,1062.48,641.782,1061.96,643.3Z" transform="translate(-1049 -621.312)"/>
</svg>
