<svg xmlns="http://www.w3.org/2000/svg" width="24" height="24" viewBox="0 0 24 24">
  <defs>
    <style>
      .cls-1 {
        fill: #5bffdf;
        fill-rule: evenodd;
      }
    </style>
  </defs>
  <path class="cls-1" d="M1178.94,24V41L1170,35.518V29.3Zm8.1,1.2-0.14-.091-1.08,1.112,0.22,0.13a7.085,7.085,0,0,1-.26,12.3l-0.27.151,1.32,0.972,0.12-.074A8.576,8.576,0,0,0,1187.04,25.2Zm-3.03,2.223-0.13-.091-0.83.857,0.21,0.13a4.8,4.8,0,0,1,2.33,4.111,4.844,4.844,0,0,1-2.5,4.22l-0.27.151,1.01,0.751,0.12-.074A5.936,5.936,0,0,0,1184.01,27.425Z" transform="translate(-1168.5 -20.5)"/>
</svg>
