<svg xmlns="http://www.w3.org/2000/svg" width="20" height="20" viewBox="0 0 20 20">
  <defs>
    <style>
      .cls-1 {
        fill: #363e52;
        fill-rule: evenodd;
      }
    </style>
  </defs>
  <path id="Shape_6_copy_3" data-name="Shape 6 copy 3" class="cls-1" d="M603.652,799.684a1.151,1.151,0,1,1-1.369,1.354A1.157,1.157,0,0,1,603.652,799.684Zm3.907,0a1.151,1.151,0,1,1-1.371,1.355A1.159,1.159,0,0,1,607.559,799.684Zm3.906,0a1.151,1.151,0,1,1-1.37,1.356A1.158,1.158,0,0,1,611.465,799.684Zm0.706,10.551a1.312,1.312,0,0,0,.814-0.284,1.279,1.279,0,0,0,.416-1.4l-0.493-1.461a8.454,8.454,0,0,0,3.125-6.569,8.669,8.669,0,1,0-6.63,8.3l2.107,1.235A1.311,1.311,0,0,0,612.171,810.235Zm-4.783-17.545a7.883,7.883,0,0,1,7.919,7.828,7.752,7.752,0,0,1-3.047,6.163l-0.2.156,0.653,1.938a0.561,0.561,0,0,1-.183.617,0.586,0.586,0,0,1-.649.046l-2.365-1.385-0.146.037a8.06,8.06,0,0,1-1.981.257A7.829,7.829,0,1,1,607.388,792.69Z" transform="translate(-597.39 -791.11)"/>
</svg>
