<svg xmlns="http://www.w3.org/2000/svg" width="24" height="24" viewBox="0 0 24 24">
  <defs>
    <style>
      .cls-1 {
        fill: #e2ff5b;
        fill-rule: evenodd;
      }
    </style>
  </defs>
  <path class="cls-1" d="M576.941,24V41L568,35.518V29.3Zm8.1,1.2-0.139-.091-1.075,1.112,0.213,0.13a7.085,7.085,0,0,1-.252,12.3l-0.271.151,1.315,0.972,0.117-.074A8.57,8.57,0,0,0,585.037,25.2Zm-3.022,2.223-0.14-.091-0.828.857,0.213,0.13a4.8,4.8,0,0,1-.171,8.331l-0.271.151,1.016,0.751,0.117-.074A5.944,5.944,0,0,0,582.015,27.425Z" transform="translate(-566.5 -20.5)"/>
</svg>
